<mxfile host="app.diagrams.net" agent="Mozilla/5.0 (Macintosh; Intel Mac OS X 10_15_7) AppleWebKit/537.36 (KHTML, like Gecko) Chrome/134.0.0.0 Safari/537.36" version="26.2.8">
  <diagram name="Page-1" id="qwX335CLt5MyG1qgg5tD">
    <mxGraphModel dx="2109" dy="689" grid="1" gridSize="10" guides="1" tooltips="1" connect="1" arrows="1" fold="1" page="1" pageScale="1" pageWidth="850" pageHeight="1100" math="0" shadow="0">
      <root>
        <mxCell id="0" />
        <mxCell id="1" parent="0" />
        <mxCell id="ppDPkzr2UhNkobLf3CyA-1" value="" style="rounded=1;whiteSpace=wrap;html=1;direction=south;fillColor=light-dark(#FFF2CC,#000000);" parent="1" vertex="1">
          <mxGeometry x="60" y="170" width="190" height="500" as="geometry" />
        </mxCell>
        <mxCell id="ppDPkzr2UhNkobLf3CyA-2" value="" style="rounded=1;whiteSpace=wrap;html=1;direction=south;fillColor=light-dark(#FFF2CC,var(--ge-dark-color, #121212));" parent="1" vertex="1">
          <mxGeometry x="670" y="170" width="190" height="500" as="geometry" />
        </mxCell>
        <mxCell id="ppDPkzr2UhNkobLf3CyA-3" value="" style="rounded=1;whiteSpace=wrap;html=1;direction=south;fillColor=light-dark(#B9E0A5,var(--ge-dark-color, #121212));" parent="1" vertex="1">
          <mxGeometry x="470" y="170" width="190" height="500" as="geometry" />
        </mxCell>
        <mxCell id="ppDPkzr2UhNkobLf3CyA-4" value="" style="rounded=1;whiteSpace=wrap;html=1;direction=south;fillColor=light-dark(#FFF2CC,var(--ge-dark-color, #121212));" parent="1" vertex="1">
          <mxGeometry x="260" y="170" width="200" height="500" as="geometry" />
        </mxCell>
        <mxCell id="ppDPkzr2UhNkobLf3CyA-5" value="" style="rounded=1;whiteSpace=wrap;html=1;direction=south;fillColor=light-dark(#E6FFCC,var(--ge-dark-color, #121212));strokeColor=light-dark(#000000,#FFFFFF);" parent="1" vertex="1">
          <mxGeometry x="-780" y="140" width="190" height="500" as="geometry" />
        </mxCell>
        <mxCell id="ppDPkzr2UhNkobLf3CyA-8" value="&lt;font style=&quot;font-size: 24px;&quot;&gt;&lt;b&gt;SPRINT 1&lt;/b&gt;&lt;/font&gt;" style="rounded=1;whiteSpace=wrap;html=1;" parent="1" vertex="1">
          <mxGeometry x="-745" y="170" width="120" height="60" as="geometry" />
        </mxCell>
        <mxCell id="ppDPkzr2UhNkobLf3CyA-9" value="&lt;font style=&quot;font-size: 24px;&quot;&gt;&lt;b&gt;SPRINT 2&lt;/b&gt;&lt;/font&gt;" style="rounded=1;whiteSpace=wrap;html=1;" parent="1" vertex="1">
          <mxGeometry x="100" y="200" width="120" height="60" as="geometry" />
        </mxCell>
        <mxCell id="ppDPkzr2UhNkobLf3CyA-10" value="&lt;b&gt;&lt;font style=&quot;font-size: 24px;&quot;&gt;SPRINT 3&lt;/font&gt;&lt;/b&gt;" style="rounded=1;whiteSpace=wrap;html=1;" parent="1" vertex="1">
          <mxGeometry x="300" y="200" width="120" height="60" as="geometry" />
        </mxCell>
        <mxCell id="ppDPkzr2UhNkobLf3CyA-11" value="&lt;b&gt;&lt;font style=&quot;font-size: 24px;&quot;&gt;SPRINT 4&lt;/font&gt;&lt;/b&gt;" style="rounded=1;whiteSpace=wrap;html=1;" parent="1" vertex="1">
          <mxGeometry x="510" y="200" width="120" height="60" as="geometry" />
        </mxCell>
        <mxCell id="ppDPkzr2UhNkobLf3CyA-12" value="&lt;font style=&quot;font-size: 24px;&quot;&gt;&lt;b&gt;SPRINT 5&lt;/b&gt;&lt;/font&gt;" style="rounded=1;whiteSpace=wrap;html=1;" parent="1" vertex="1">
          <mxGeometry x="705" y="200" width="120" height="60" as="geometry" />
        </mxCell>
        <mxCell id="ppDPkzr2UhNkobLf3CyA-13" value="&lt;p style=&quot;margin: 0px; font-variant-numeric: normal; font-variant-east-asian: normal; font-variant-alternates: normal; font-size-adjust: none; font-kerning: auto; font-optical-sizing: auto; font-feature-settings: normal; font-variation-settings: normal; font-variant-position: normal; font-variant-emoji: normal; font-stretch: normal; line-height: normal; font-family: &amp;quot;Helvetica Neue&amp;quot;;&quot; class=&quot;p1&quot;&gt;&lt;font style=&quot;font-size: 18px;&quot;&gt;Understanding the problem description&lt;/font&gt;&lt;/p&gt;" style="rounded=0;whiteSpace=wrap;html=1;align=center;" parent="1" vertex="1">
          <mxGeometry x="-770" y="240" width="170" height="50" as="geometry" />
        </mxCell>
        <mxCell id="ppDPkzr2UhNkobLf3CyA-14" value="&lt;p style=&quot;margin: 0px; font-variant-numeric: normal; font-variant-east-asian: normal; font-variant-alternates: normal; font-size-adjust: none; font-kerning: auto; font-optical-sizing: auto; font-feature-settings: normal; font-variation-settings: normal; font-variant-position: normal; font-variant-emoji: normal; font-stretch: normal; line-height: normal; font-family: &amp;quot;Helvetica Neue&amp;quot;; text-align: start;&quot; class=&quot;p1&quot;&gt;&lt;font style=&quot;font-size: 18px;&quot;&gt;Youtrack sessions&lt;/font&gt;&lt;/p&gt;" style="rounded=0;whiteSpace=wrap;html=1;" parent="1" vertex="1">
          <mxGeometry x="-770" y="300" width="170" height="50" as="geometry" />
        </mxCell>
        <mxCell id="ppDPkzr2UhNkobLf3CyA-15" value="&lt;p style=&quot;margin: 0px; font-variant-numeric: normal; font-variant-east-asian: normal; font-variant-alternates: normal; font-size-adjust: none; font-kerning: auto; font-optical-sizing: auto; font-feature-settings: normal; font-variation-settings: normal; font-variant-position: normal; font-variant-emoji: normal; font-stretch: normal; line-height: normal; font-family: &amp;quot;Helvetica Neue&amp;quot;;&quot; class=&quot;p1&quot;&gt;&lt;font style=&quot;font-size: 18px;&quot;&gt;Agile and Scrum training&lt;/font&gt;&lt;/p&gt;" style="rounded=0;whiteSpace=wrap;html=1;align=center;" parent="1" vertex="1">
          <mxGeometry x="-770" y="365" width="170" height="50" as="geometry" />
        </mxCell>
        <mxCell id="ppDPkzr2UhNkobLf3CyA-16" value="&lt;p style=&quot;margin: 0px; font-variant-numeric: normal; font-variant-east-asian: normal; font-variant-alternates: normal; font-size-adjust: none; font-kerning: auto; font-optical-sizing: auto; font-feature-settings: normal; font-variation-settings: normal; font-variant-position: normal; font-variant-emoji: normal; font-stretch: normal; line-height: normal; font-family: &amp;quot;Helvetica Neue&amp;quot;;&quot; class=&quot;p1&quot;&gt;&lt;font style=&quot;font-size: 18px;&quot;&gt;Learning business and technical problems in the problem statement&lt;/font&gt;&lt;/p&gt;" style="rounded=0;whiteSpace=wrap;html=1;align=center;" parent="1" vertex="1">
          <mxGeometry x="-770" y="420" width="170" height="90" as="geometry" />
        </mxCell>
        <mxCell id="ppDPkzr2UhNkobLf3CyA-17" value="&lt;font style=&quot;font-size: 18px;&quot;&gt;&lt;br&gt;creating user briefing stories&lt;br&gt;&lt;br&gt;&lt;/font&gt;" style="rounded=0;whiteSpace=wrap;html=1;" parent="1" vertex="1">
          <mxGeometry x="-770" y="520" width="170" height="50" as="geometry" />
        </mxCell>
        <mxCell id="ppDPkzr2UhNkobLf3CyA-80" value="" style="rounded=1;whiteSpace=wrap;html=1;direction=south;fillColor=light-dark(#FFF2CC,var(--ge-dark-color, #121212));" parent="1" vertex="1">
          <mxGeometry x="-170" y="170" width="210" height="500" as="geometry" />
        </mxCell>
        <mxCell id="ppDPkzr2UhNkobLf3CyA-81" value="" style="rounded=1;whiteSpace=wrap;html=1;direction=south;fillColor=light-dark(#FFFFCC,var(--ge-dark-color, #121212));" parent="1" vertex="1">
          <mxGeometry x="1670" y="1890" width="270" height="680" as="geometry" />
        </mxCell>
        <mxCell id="ppDPkzr2UhNkobLf3CyA-82" value="" style="rounded=1;whiteSpace=wrap;html=1;direction=south;fillColor=light-dark(#FFFFCC,var(--ge-dark-color, #121212));" parent="1" vertex="1">
          <mxGeometry x="1390" y="1890" width="270" height="680" as="geometry" />
        </mxCell>
        <mxCell id="ppDPkzr2UhNkobLf3CyA-83" value="" style="rounded=1;whiteSpace=wrap;html=1;direction=south;fillColor=light-dark(#FFFFCC,var(--ge-dark-color, #121212));" parent="1" vertex="1">
          <mxGeometry x="1110" y="1890" width="270" height="680" as="geometry" />
        </mxCell>
        <mxCell id="ppDPkzr2UhNkobLf3CyA-84" value="" style="rounded=1;whiteSpace=wrap;html=1;direction=south;fillColor=light-dark(#FFFFCC,var(--ge-dark-color, #121212));" parent="1" vertex="1">
          <mxGeometry x="830" y="1890" width="270" height="680" as="geometry" />
        </mxCell>
        <mxCell id="ppDPkzr2UhNkobLf3CyA-85" value="&lt;font style=&quot;font-size: 36px;&quot;&gt;&lt;b&gt;SPRINT 1&lt;/b&gt;&lt;/font&gt;" style="rounded=1;whiteSpace=wrap;html=1;" parent="1" vertex="1">
          <mxGeometry x="-580" y="250" width="180" height="60" as="geometry" />
        </mxCell>
        <mxCell id="ppDPkzr2UhNkobLf3CyA-86" value="&lt;font style=&quot;font-size: 36px;&quot;&gt;&lt;b&gt;SPRINT 2&lt;/b&gt;&lt;/font&gt;" style="rounded=1;whiteSpace=wrap;html=1;" parent="1" vertex="1">
          <mxGeometry x="850" y="1900" width="230" height="80" as="geometry" />
        </mxCell>
        <mxCell id="ppDPkzr2UhNkobLf3CyA-87" value="&lt;font style=&quot;font-size: 36px;&quot;&gt;&lt;b&gt;SPRINT 3&lt;/b&gt;&lt;/font&gt;" style="rounded=1;whiteSpace=wrap;html=1;" parent="1" vertex="1">
          <mxGeometry x="1130" y="1900" width="230" height="80" as="geometry" />
        </mxCell>
        <mxCell id="ppDPkzr2UhNkobLf3CyA-88" value="&lt;font style=&quot;font-size: 36px;&quot;&gt;&lt;b&gt;SPRINT 4&lt;/b&gt;&lt;/font&gt;" style="rounded=1;whiteSpace=wrap;html=1;" parent="1" vertex="1">
          <mxGeometry x="1410" y="1900" width="230" height="80" as="geometry" />
        </mxCell>
        <mxCell id="ppDPkzr2UhNkobLf3CyA-89" value="&lt;font style=&quot;font-size: 36px;&quot;&gt;&lt;b&gt;SPRINT 5&lt;/b&gt;&lt;/font&gt;" style="rounded=1;whiteSpace=wrap;html=1;" parent="1" vertex="1">
          <mxGeometry x="1690" y="1900" width="230" height="80" as="geometry" />
        </mxCell>
        <mxCell id="ppDPkzr2UhNkobLf3CyA-90" value="&lt;font style=&quot;font-size: 18px;&quot;&gt;Understanding the problem description&lt;/font&gt;&lt;div&gt;&lt;font style=&quot;font-size: 18px;&quot;&gt;youtrack sessions&lt;/font&gt;&lt;/div&gt;&lt;div&gt;&lt;font style=&quot;font-size: 18px;&quot;&gt;Agile and Scrum training&lt;/font&gt;&lt;/div&gt;" style="rounded=1;whiteSpace=wrap;html=1;align=left;" parent="1" vertex="1">
          <mxGeometry x="-155" y="270" width="180" height="120" as="geometry" />
        </mxCell>
        <mxCell id="ppDPkzr2UhNkobLf3CyA-91" value="&lt;font style=&quot;font-size: 18px;&quot;&gt;Researching articles&lt;/font&gt;&lt;div&gt;&lt;font style=&quot;font-size: 18px;&quot;&gt;Revising the project presentation and project report&lt;/font&gt;&lt;/div&gt;" style="rounded=1;whiteSpace=wrap;html=1;align=left;" parent="1" vertex="1">
          <mxGeometry x="-152.5" y="510" width="175" height="130" as="geometry" />
        </mxCell>
        <mxCell id="ppDPkzr2UhNkobLf3CyA-92" value="&lt;font style=&quot;font-size: 18px;&quot;&gt;Learning business and technical problem&lt;/font&gt;&lt;div&gt;&lt;font style=&quot;font-size: 18px;&quot;&gt;Creating user briefing stories&amp;nbsp;&lt;/font&gt;&lt;/div&gt;" style="rounded=1;whiteSpace=wrap;html=1;align=left;" parent="1" vertex="1">
          <mxGeometry x="-155" y="395" width="180" height="107.5" as="geometry" />
        </mxCell>
        <mxCell id="ppDPkzr2UhNkobLf3CyA-93" value="" style="rounded=1;whiteSpace=wrap;html=1;" parent="1" vertex="1">
          <mxGeometry x="850" y="2000" width="240" height="160" as="geometry" />
        </mxCell>
        <mxCell id="ppDPkzr2UhNkobLf3CyA-94" value="" style="rounded=1;whiteSpace=wrap;html=1;" parent="1" vertex="1">
          <mxGeometry x="850" y="2180" width="240" height="160" as="geometry" />
        </mxCell>
        <mxCell id="ppDPkzr2UhNkobLf3CyA-95" value="" style="rounded=1;whiteSpace=wrap;html=1;" parent="1" vertex="1">
          <mxGeometry x="840" y="2360" width="240" height="160" as="geometry" />
        </mxCell>
        <mxCell id="ppDPkzr2UhNkobLf3CyA-96" value="" style="rounded=1;whiteSpace=wrap;html=1;" parent="1" vertex="1">
          <mxGeometry x="1130" y="2000" width="240" height="160" as="geometry" />
        </mxCell>
        <mxCell id="ppDPkzr2UhNkobLf3CyA-97" value="" style="rounded=1;whiteSpace=wrap;html=1;" parent="1" vertex="1">
          <mxGeometry x="1130" y="2180" width="240" height="160" as="geometry" />
        </mxCell>
        <mxCell id="ppDPkzr2UhNkobLf3CyA-98" value="" style="rounded=1;whiteSpace=wrap;html=1;" parent="1" vertex="1">
          <mxGeometry x="1125" y="2365" width="240" height="160" as="geometry" />
        </mxCell>
        <mxCell id="ppDPkzr2UhNkobLf3CyA-99" value="" style="rounded=1;whiteSpace=wrap;html=1;" parent="1" vertex="1">
          <mxGeometry x="1410" y="2000" width="240" height="160" as="geometry" />
        </mxCell>
        <mxCell id="ppDPkzr2UhNkobLf3CyA-100" value="" style="rounded=1;whiteSpace=wrap;html=1;" parent="1" vertex="1">
          <mxGeometry x="1410" y="2180" width="240" height="160" as="geometry" />
        </mxCell>
        <mxCell id="ppDPkzr2UhNkobLf3CyA-101" value="" style="rounded=1;whiteSpace=wrap;html=1;" parent="1" vertex="1">
          <mxGeometry x="1410" y="2370" width="240" height="160" as="geometry" />
        </mxCell>
        <mxCell id="ppDPkzr2UhNkobLf3CyA-102" value="" style="rounded=1;whiteSpace=wrap;html=1;" parent="1" vertex="1">
          <mxGeometry x="1690" y="2000" width="240" height="160" as="geometry" />
        </mxCell>
        <mxCell id="ppDPkzr2UhNkobLf3CyA-103" value="" style="rounded=1;whiteSpace=wrap;html=1;" parent="1" vertex="1">
          <mxGeometry x="1690" y="2180" width="240" height="160" as="geometry" />
        </mxCell>
        <mxCell id="ppDPkzr2UhNkobLf3CyA-104" value="" style="rounded=1;whiteSpace=wrap;html=1;" parent="1" vertex="1">
          <mxGeometry x="1690" y="2370" width="240" height="160" as="geometry" />
        </mxCell>
        <mxCell id="ppDPkzr2UhNkobLf3CyA-112" value="&lt;i&gt;&lt;b&gt;1/27-2/3&lt;/b&gt;&lt;/i&gt;" style="rounded=1;whiteSpace=wrap;html=1;" parent="1" vertex="1">
          <mxGeometry x="190" y="605" width="50" height="20" as="geometry" />
        </mxCell>
        <mxCell id="ppDPkzr2UhNkobLf3CyA-114" value="&lt;i&gt;&lt;b&gt;2/3-2/9&lt;/b&gt;&lt;/i&gt;" style="rounded=1;whiteSpace=wrap;html=1;" parent="1" vertex="1">
          <mxGeometry x="-35" y="480" width="60" height="20" as="geometry" />
        </mxCell>
        <mxCell id="ppDPkzr2UhNkobLf3CyA-115" value="&lt;i&gt;&lt;b&gt;2/10-2/16&lt;/b&gt;&lt;/i&gt;" style="rounded=1;whiteSpace=wrap;html=1;" parent="1" vertex="1">
          <mxGeometry x="-30" y="620" width="55" height="20" as="geometry" />
        </mxCell>
        <mxCell id="ppDPkzr2UhNkobLf3CyA-116" value="&lt;i&gt;&lt;b&gt;1/27-2/10&lt;/b&gt;&lt;/i&gt;" style="rounded=1;whiteSpace=wrap;html=1;" parent="1" vertex="1">
          <mxGeometry x="1000" y="2490" width="80" height="30" as="geometry" />
        </mxCell>
        <mxCell id="ppDPkzr2UhNkobLf3CyA-117" value="&lt;i&gt;&lt;b&gt;1/27-2/10&lt;/b&gt;&lt;/i&gt;" style="rounded=1;whiteSpace=wrap;html=1;" parent="1" vertex="1">
          <mxGeometry x="1010" y="2310" width="80" height="30" as="geometry" />
        </mxCell>
        <mxCell id="ppDPkzr2UhNkobLf3CyA-118" value="&lt;i&gt;&lt;b&gt;1/27-2/10&lt;/b&gt;&lt;/i&gt;" style="rounded=1;whiteSpace=wrap;html=1;" parent="1" vertex="1">
          <mxGeometry x="1010" y="2130" width="80" height="30" as="geometry" />
        </mxCell>
        <mxCell id="ppDPkzr2UhNkobLf3CyA-119" value="&lt;i&gt;&lt;b&gt;1/27-2/10&lt;/b&gt;&lt;/i&gt;" style="rounded=1;whiteSpace=wrap;html=1;" parent="1" vertex="1">
          <mxGeometry x="1285" y="2495" width="80" height="30" as="geometry" />
        </mxCell>
        <mxCell id="ppDPkzr2UhNkobLf3CyA-120" value="&lt;i&gt;&lt;b&gt;1/27-2/10&lt;/b&gt;&lt;/i&gt;" style="rounded=1;whiteSpace=wrap;html=1;" parent="1" vertex="1">
          <mxGeometry x="1290" y="2310" width="80" height="30" as="geometry" />
        </mxCell>
        <mxCell id="ppDPkzr2UhNkobLf3CyA-121" value="&lt;i&gt;&lt;b&gt;1/27-2/10&lt;/b&gt;&lt;/i&gt;" style="rounded=1;whiteSpace=wrap;html=1;" parent="1" vertex="1">
          <mxGeometry x="1290" y="2130" width="80" height="30" as="geometry" />
        </mxCell>
        <mxCell id="ppDPkzr2UhNkobLf3CyA-122" value="&lt;i&gt;&lt;b&gt;1/27-2/10&lt;/b&gt;&lt;/i&gt;" style="rounded=1;whiteSpace=wrap;html=1;" parent="1" vertex="1">
          <mxGeometry x="1570" y="2500" width="80" height="30" as="geometry" />
        </mxCell>
        <mxCell id="ppDPkzr2UhNkobLf3CyA-123" value="&lt;i&gt;&lt;b&gt;1/27-2/10&lt;/b&gt;&lt;/i&gt;" style="rounded=1;whiteSpace=wrap;html=1;" parent="1" vertex="1">
          <mxGeometry x="1570" y="2310" width="80" height="30" as="geometry" />
        </mxCell>
        <mxCell id="ppDPkzr2UhNkobLf3CyA-124" value="&lt;i&gt;&lt;b&gt;1/27-2/10&lt;/b&gt;&lt;/i&gt;" style="rounded=1;whiteSpace=wrap;html=1;" parent="1" vertex="1">
          <mxGeometry x="1570" y="2130" width="80" height="30" as="geometry" />
        </mxCell>
        <mxCell id="ppDPkzr2UhNkobLf3CyA-125" value="&lt;i&gt;&lt;b&gt;1/27-2/10&lt;/b&gt;&lt;/i&gt;" style="rounded=1;whiteSpace=wrap;html=1;" parent="1" vertex="1">
          <mxGeometry x="1850" y="2500" width="80" height="30" as="geometry" />
        </mxCell>
        <mxCell id="ppDPkzr2UhNkobLf3CyA-126" value="&lt;i&gt;&lt;b&gt;1/27-2/10&lt;/b&gt;&lt;/i&gt;" style="rounded=1;whiteSpace=wrap;html=1;" parent="1" vertex="1">
          <mxGeometry x="1850" y="2310" width="80" height="30" as="geometry" />
        </mxCell>
        <mxCell id="ppDPkzr2UhNkobLf3CyA-127" value="&lt;i&gt;&lt;b&gt;1/27-2/10&lt;/b&gt;&lt;/i&gt;" style="rounded=1;whiteSpace=wrap;html=1;" parent="1" vertex="1">
          <mxGeometry x="1850" y="2130" width="80" height="30" as="geometry" />
        </mxCell>
        <mxCell id="ppDPkzr2UhNkobLf3CyA-140" value="&lt;font style=&quot;font-size: 18px;&quot;&gt;Comprehensive System Testing&lt;/font&gt;" style="rounded=0;whiteSpace=wrap;html=1;" parent="1" vertex="1">
          <mxGeometry x="685" y="395" width="160" height="50" as="geometry" />
        </mxCell>
        <mxCell id="ppDPkzr2UhNkobLf3CyA-141" value="&lt;div&gt;&lt;font style=&quot;font-size: 18px;&quot;&gt;Complete System Integration&lt;/font&gt;&lt;/div&gt;" style="rounded=0;whiteSpace=wrap;html=1;" parent="1" vertex="1">
          <mxGeometry x="685" y="330" width="160" height="50" as="geometry" />
        </mxCell>
        <mxCell id="ppDPkzr2UhNkobLf3CyA-142" value="&lt;div&gt;&lt;font style=&quot;font-size: 18px;&quot;&gt;Finalize Agent Configuration&lt;/font&gt;&lt;/div&gt;" style="rounded=0;whiteSpace=wrap;html=1;" parent="1" vertex="1">
          <mxGeometry x="685" y="270" width="160" height="50" as="geometry" />
        </mxCell>
        <mxCell id="ppDPkzr2UhNkobLf3CyA-144" value="" style="html=1;verticalLabelPosition=bottom;align=center;labelBackgroundColor=#ffffff;verticalAlign=top;strokeWidth=2;strokeColor=#0080F0;shadow=0;dashed=0;shape=mxgraph.ios7.icons.calendar;" parent="1" vertex="1">
          <mxGeometry x="-745" y="110" width="110" height="50" as="geometry" />
        </mxCell>
        <mxCell id="ppDPkzr2UhNkobLf3CyA-145" value="" style="html=1;verticalLabelPosition=bottom;align=center;labelBackgroundColor=#ffffff;verticalAlign=top;strokeWidth=2;strokeColor=#0080F0;shadow=0;dashed=0;shape=mxgraph.ios7.icons.calendar;" parent="1" vertex="1">
          <mxGeometry x="95" y="140" width="110" height="50" as="geometry" />
        </mxCell>
        <mxCell id="ppDPkzr2UhNkobLf3CyA-146" value="" style="html=1;verticalLabelPosition=bottom;align=center;labelBackgroundColor=#ffffff;verticalAlign=top;strokeWidth=2;strokeColor=#0080F0;shadow=0;dashed=0;shape=mxgraph.ios7.icons.calendar;" parent="1" vertex="1">
          <mxGeometry x="310" y="140" width="110" height="50" as="geometry" />
        </mxCell>
        <mxCell id="ppDPkzr2UhNkobLf3CyA-147" value="" style="html=1;verticalLabelPosition=bottom;align=center;labelBackgroundColor=#ffffff;verticalAlign=top;strokeWidth=2;strokeColor=#0080F0;shadow=0;dashed=0;shape=mxgraph.ios7.icons.calendar;" parent="1" vertex="1">
          <mxGeometry x="515" y="140" width="110" height="50" as="geometry" />
        </mxCell>
        <mxCell id="ppDPkzr2UhNkobLf3CyA-148" value="" style="html=1;verticalLabelPosition=bottom;align=center;labelBackgroundColor=#ffffff;verticalAlign=top;strokeWidth=2;strokeColor=#0080F0;shadow=0;dashed=0;shape=mxgraph.ios7.icons.calendar;" parent="1" vertex="1">
          <mxGeometry x="720" y="140" width="110" height="50" as="geometry" />
        </mxCell>
        <mxCell id="ppDPkzr2UhNkobLf3CyA-149" value="" style="rounded=0;whiteSpace=wrap;html=1;" parent="1" vertex="1">
          <mxGeometry x="-745" y="115" width="110" height="40" as="geometry" />
        </mxCell>
        <mxCell id="ppDPkzr2UhNkobLf3CyA-150" value="&lt;span style=&quot;margin: 0px; padding: 0px 0px 0.225109px; user-select: text; -webkit-user-drag: none; -webkit-tap-highlight-color: transparent; touch-action: pan-x pan-y; -webkit-font-smoothing: antialiased; font-variant-numeric: normal; font-variant-east-asian: normal; font-variant-alternates: normal; font-variant-position: normal; font-variant-emoji: normal; letter-spacing: 0px; text-align: left; white-space-collapse: preserve; background-color: rgb(245, 245, 245); color: rgb(8, 47, 16); font-weight: bold; font-size: 18pt; font-family: Calibri, Calibri_EmbeddedFont, Calibri_MSFontService, &amp;quot;ＭＳ Ｐゴシック&amp;quot;, &amp;quot;ＭＳ Ｐゴシック_EmbeddedFont&amp;quot;, &amp;quot;ＭＳ Ｐゴシック_MSFontService&amp;quot;, Calibri_MSFontService, &amp;quot;ＭＳ Ｐゴシック&amp;quot;, sans-serif; font-kerning: normal; line-height: 24px; vertical-align: 0.225109px;&quot; lang=&quot;EN-US&quot; class=&quot;TextRun MacChromeBold SCXP11804295 BCX0&quot; data-contrast=&quot;none&quot; data-usefontface=&quot;true&quot; data-scheme-color=&quot;@082F10,1,18:49000&quot;&gt;&lt;span style=&quot;margin: 0px; padding: 0px; user-select: text; -webkit-user-drag: none; -webkit-tap-highlight-color: transparent; touch-action: pan-x pan-y; vertical-align: -0.225109px; line-height: 0px; position: relative;&quot; class=&quot;NormalTextRun SCXP11804295 BCX0&quot;&gt;2/17-3/9&lt;/span&gt;&lt;/span&gt;&lt;span style=&quot;margin: 0px; padding: 0px; user-select: text; -webkit-user-drag: none; -webkit-tap-highlight-color: transparent; touch-action: pan-x pan-y; text-align: left; white-space-collapse: preserve; background-color: rgb(245, 245, 245); font-size: 18pt; line-height: 0px; font-family: Calibri, Calibri_EmbeddedFont, Calibri_MSFontService, &amp;quot;ＭＳ Ｐゴシック&amp;quot;, &amp;quot;ＭＳ Ｐゴシック_EmbeddedFont&amp;quot;, &amp;quot;ＭＳ Ｐゴシック_MSFontService&amp;quot;, Calibri_MSFontService, &amp;quot;ＭＳ Ｐゴシック&amp;quot;, sans-serif;&quot; class=&quot;EOP SCXP11804295 BCX0&quot;&gt;​&lt;/span&gt;" style="rounded=0;whiteSpace=wrap;html=1;" parent="1" vertex="1">
          <mxGeometry x="95" y="150" width="110" height="40" as="geometry" />
        </mxCell>
        <mxCell id="ppDPkzr2UhNkobLf3CyA-151" value="&lt;span style=&quot;margin: 0px; padding: 0px 0px 0.225109px; user-select: text; -webkit-user-drag: none; -webkit-tap-highlight-color: transparent; touch-action: pan-x pan-y; -webkit-font-smoothing: antialiased; font-variant-numeric: normal; font-variant-east-asian: normal; font-variant-alternates: normal; font-variant-position: normal; font-variant-emoji: normal; letter-spacing: 0px; text-align: left; white-space-collapse: preserve; background-color: rgb(245, 245, 245); color: rgb(8, 47, 16); font-weight: bold; font-size: 18pt; font-family: Calibri, Calibri_EmbeddedFont, Calibri_MSFontService, &amp;quot;ＭＳ Ｐゴシック&amp;quot;, &amp;quot;ＭＳ Ｐゴシック_EmbeddedFont&amp;quot;, &amp;quot;ＭＳ Ｐゴシック_MSFontService&amp;quot;, Calibri_MSFontService, &amp;quot;ＭＳ Ｐゴシック&amp;quot;, sans-serif; font-kerning: normal; line-height: 24px; vertical-align: 0.225109px;&quot; lang=&quot;EN-US&quot; class=&quot;TextRun MacChromeBold SCXP223867883 BCX0&quot; data-contrast=&quot;none&quot; data-usefontface=&quot;true&quot; data-scheme-color=&quot;@082F10,1,18:49000&quot;&gt;&lt;span style=&quot;margin: 0px; padding: 0px; user-select: text; -webkit-user-drag: none; -webkit-tap-highlight-color: transparent; touch-action: pan-x pan-y; vertical-align: -0.225109px; line-height: 0px; position: relative;&quot; class=&quot;NormalTextRun SCXP223867883 BCX0&quot;&gt;3/10-3/30&lt;/span&gt;&lt;/span&gt;&lt;span style=&quot;margin: 0px; padding: 0px; user-select: text; -webkit-user-drag: none; -webkit-tap-highlight-color: transparent; touch-action: pan-x pan-y; text-align: left; white-space-collapse: preserve; background-color: rgb(245, 245, 245); font-size: 18pt; line-height: 0px; font-family: Calibri, Calibri_EmbeddedFont, Calibri_MSFontService, &amp;quot;ＭＳ Ｐゴシック&amp;quot;, &amp;quot;ＭＳ Ｐゴシック_EmbeddedFont&amp;quot;, &amp;quot;ＭＳ Ｐゴシック_MSFontService&amp;quot;, Calibri_MSFontService, &amp;quot;ＭＳ Ｐゴシック&amp;quot;, sans-serif;&quot; class=&quot;EOP SCXP223867883 BCX0&quot;&gt;​&lt;/span&gt;" style="rounded=0;whiteSpace=wrap;html=1;" parent="1" vertex="1">
          <mxGeometry x="310" y="150" width="110" height="40" as="geometry" />
        </mxCell>
        <mxCell id="ppDPkzr2UhNkobLf3CyA-152" value="&lt;span style=&quot;margin: 0px; padding: 0px 0px 0.225109px; user-select: text; -webkit-user-drag: none; -webkit-tap-highlight-color: transparent; touch-action: pan-x pan-y; -webkit-font-smoothing: antialiased; font-variant-numeric: normal; font-variant-east-asian: normal; font-variant-alternates: normal; font-variant-position: normal; font-variant-emoji: normal; letter-spacing: 0px; text-align: left; white-space-collapse: preserve; background-color: rgb(245, 245, 245); color: rgb(8, 47, 16); font-weight: bold; font-size: 18pt; font-family: Calibri, Calibri_EmbeddedFont, Calibri_MSFontService, &amp;quot;ＭＳ Ｐゴシック&amp;quot;, &amp;quot;ＭＳ Ｐゴシック_EmbeddedFont&amp;quot;, &amp;quot;ＭＳ Ｐゴシック_MSFontService&amp;quot;, Calibri_MSFontService, &amp;quot;ＭＳ Ｐゴシック&amp;quot;, sans-serif; font-kerning: normal; line-height: 24px; vertical-align: 0.225109px;&quot; lang=&quot;EN-US&quot; class=&quot;TextRun MacChromeBold SCXP26165100 BCX0&quot; data-contrast=&quot;none&quot; data-usefontface=&quot;true&quot; data-scheme-color=&quot;@082F10,1,18:49000&quot;&gt;&lt;span style=&quot;margin: 0px; padding: 0px; user-select: text; -webkit-user-drag: none; -webkit-tap-highlight-color: transparent; touch-action: pan-x pan-y; vertical-align: -0.225109px; line-height: 0px; position: relative;&quot; class=&quot;NormalTextRun SCXP26165100 BCX0&quot;&gt;3/31-4/20&lt;/span&gt;&lt;/span&gt;&lt;span style=&quot;margin: 0px; padding: 0px; user-select: text; -webkit-user-drag: none; -webkit-tap-highlight-color: transparent; touch-action: pan-x pan-y; text-align: left; white-space-collapse: preserve; background-color: rgb(245, 245, 245); font-size: 18pt; line-height: 0px; font-family: Calibri, Calibri_EmbeddedFont, Calibri_MSFontService, &amp;quot;ＭＳ Ｐゴシック&amp;quot;, &amp;quot;ＭＳ Ｐゴシック_EmbeddedFont&amp;quot;, &amp;quot;ＭＳ Ｐゴシック_MSFontService&amp;quot;, Calibri_MSFontService, &amp;quot;ＭＳ Ｐゴシック&amp;quot;, sans-serif;&quot; class=&quot;EOP SCXP26165100 BCX0&quot;&gt;​&lt;/span&gt;" style="rounded=0;whiteSpace=wrap;html=1;" parent="1" vertex="1">
          <mxGeometry x="515" y="150" width="110" height="40" as="geometry" />
        </mxCell>
        <mxCell id="ppDPkzr2UhNkobLf3CyA-153" value="&lt;span style=&quot;margin: 0px; padding: 0px 0px 0.225109px; user-select: text; -webkit-user-drag: none; -webkit-tap-highlight-color: transparent; touch-action: pan-x pan-y; -webkit-font-smoothing: antialiased; font-variant-numeric: normal; font-variant-east-asian: normal; font-variant-alternates: normal; font-variant-position: normal; font-variant-emoji: normal; letter-spacing: 0px; text-align: left; white-space-collapse: preserve; background-color: rgb(245, 245, 245); color: rgb(8, 47, 16); font-weight: bold; font-size: 18pt; font-family: Calibri, Calibri_EmbeddedFont, Calibri_MSFontService, &amp;quot;ＭＳ Ｐゴシック&amp;quot;, &amp;quot;ＭＳ Ｐゴシック_EmbeddedFont&amp;quot;, &amp;quot;ＭＳ Ｐゴシック_MSFontService&amp;quot;, Calibri_MSFontService, &amp;quot;ＭＳ Ｐゴシック&amp;quot;, sans-serif; font-kerning: normal; line-height: 24px; vertical-align: 0.225109px;&quot; lang=&quot;EN-US&quot; class=&quot;TextRun MacChromeBold SCXP241945039 BCX0&quot; data-contrast=&quot;none&quot; data-usefontface=&quot;true&quot; data-scheme-color=&quot;@082F10,1,18:49000&quot;&gt;&lt;span style=&quot;margin: 0px; padding: 0px; user-select: text; -webkit-user-drag: none; -webkit-tap-highlight-color: transparent; touch-action: pan-x pan-y; vertical-align: -0.225109px; line-height: 0px; position: relative;&quot; class=&quot;NormalTextRun SCXP241945039 BCX0&quot;&gt;4/21-5/8&lt;/span&gt;&lt;/span&gt;&lt;span style=&quot;margin: 0px; padding: 0px; user-select: text; -webkit-user-drag: none; -webkit-tap-highlight-color: transparent; touch-action: pan-x pan-y; text-align: left; white-space-collapse: preserve; background-color: rgb(245, 245, 245); font-size: 18pt; line-height: 0px; font-family: Calibri, Calibri_EmbeddedFont, Calibri_MSFontService, &amp;quot;ＭＳ Ｐゴシック&amp;quot;, &amp;quot;ＭＳ Ｐゴシック_EmbeddedFont&amp;quot;, &amp;quot;ＭＳ Ｐゴシック_MSFontService&amp;quot;, Calibri_MSFontService, &amp;quot;ＭＳ Ｐゴシック&amp;quot;, sans-serif;&quot; class=&quot;EOP SCXP241945039 BCX0&quot;&gt;​&lt;/span&gt;" style="rounded=0;whiteSpace=wrap;html=1;" parent="1" vertex="1">
          <mxGeometry x="720" y="150" width="110" height="40" as="geometry" />
        </mxCell>
        <mxCell id="ppDPkzr2UhNkobLf3CyA-161" value="&lt;font style=&quot;font-size: 24px;&quot;&gt;&lt;b&gt;SPRINT 1&lt;/b&gt;&lt;/font&gt;" style="rounded=1;whiteSpace=wrap;html=1;" parent="1" vertex="1">
          <mxGeometry x="-125" y="200" width="120" height="60" as="geometry" />
        </mxCell>
        <mxCell id="ppDPkzr2UhNkobLf3CyA-162" value="&lt;span style=&quot;margin: 0px; padding: 0px 0px 0.225109px; user-select: text; -webkit-user-drag: none; -webkit-tap-highlight-color: transparent; touch-action: pan-x pan-y; -webkit-font-smoothing: antialiased; font-variant-numeric: normal; font-variant-east-asian: normal; font-variant-alternates: normal; font-variant-position: normal; font-variant-emoji: normal; letter-spacing: 0px; text-align: left; white-space-collapse: preserve; background-color: rgb(245, 245, 245); color: rgb(8, 47, 16); font-weight: bold; font-size: 18pt; font-family: Calibri, Calibri_EmbeddedFont, Calibri_MSFontService, &amp;quot;ＭＳ Ｐゴシック&amp;quot;, &amp;quot;ＭＳ Ｐゴシック_EmbeddedFont&amp;quot;, &amp;quot;ＭＳ Ｐゴシック_MSFontService&amp;quot;, Calibri_MSFontService, &amp;quot;ＭＳ Ｐゴシック&amp;quot;, sans-serif; font-kerning: normal; line-height: 24px; vertical-align: 0.225109px;&quot; lang=&quot;EN-US&quot; class=&quot;TextRun MacChromeBold SCXP11804295 BCX0&quot; data-contrast=&quot;none&quot; data-usefontface=&quot;true&quot; data-scheme-color=&quot;@082F10,1,18:49000&quot;&gt;&lt;span style=&quot;margin: 0px; padding: 0px; user-select: text; -webkit-user-drag: none; -webkit-tap-highlight-color: transparent; touch-action: pan-x pan-y; vertical-align: -0.225109px; line-height: 0px; position: relative;&quot; class=&quot;NormalTextRun SCXP11804295 BCX0&quot;&gt;2/17-3/9&lt;/span&gt;&lt;/span&gt;&lt;span style=&quot;margin: 0px; padding: 0px; user-select: text; -webkit-user-drag: none; -webkit-tap-highlight-color: transparent; touch-action: pan-x pan-y; text-align: left; white-space-collapse: preserve; background-color: rgb(245, 245, 245); font-size: 18pt; line-height: 0px; font-family: Calibri, Calibri_EmbeddedFont, Calibri_MSFontService, &amp;quot;ＭＳ Ｐゴシック&amp;quot;, &amp;quot;ＭＳ Ｐゴシック_EmbeddedFont&amp;quot;, &amp;quot;ＭＳ Ｐゴシック_MSFontService&amp;quot;, Calibri_MSFontService, &amp;quot;ＭＳ Ｐゴシック&amp;quot;, sans-serif;&quot; class=&quot;EOP SCXP11804295 BCX0&quot;&gt;​&lt;/span&gt;" style="rounded=0;whiteSpace=wrap;html=1;" parent="1" vertex="1">
          <mxGeometry x="-120" y="150" width="110" height="40" as="geometry" />
        </mxCell>
        <mxCell id="ppDPkzr2UhNkobLf3CyA-163" value="" style="html=1;verticalLabelPosition=bottom;align=center;labelBackgroundColor=#ffffff;verticalAlign=top;strokeWidth=2;strokeColor=#0080F0;shadow=0;dashed=0;shape=mxgraph.ios7.icons.calendar;" parent="1" vertex="1">
          <mxGeometry x="-120" y="140" width="110" height="50" as="geometry" />
        </mxCell>
        <mxCell id="ppDPkzr2UhNkobLf3CyA-164" value="&lt;div style=&quot;text-align: left;&quot;&gt;&lt;font face=&quot;Calibri, Calibri_EmbeddedFont, Calibri_MSFontService, ＭＳ Ｐゴシック, ＭＳ Ｐゴシック_EmbeddedFont, ＭＳ Ｐゴシック_MSFontService, Calibri_MSFontService, ＭＳ Ｐゴシック, sans-serif&quot; color=&quot;#082f10&quot;&gt;&lt;span style=&quot;font-size: 24px; white-space-collapse: preserve; background-color: rgb(245, 245, 245);&quot;&gt;&lt;b&gt;1/27-2/16&lt;/b&gt;&lt;/span&gt;&lt;/font&gt;&lt;/div&gt;" style="rounded=0;whiteSpace=wrap;html=1;" parent="1" vertex="1">
          <mxGeometry x="-120" y="150" width="110" height="40" as="geometry" />
        </mxCell>
        <mxCell id="_mTmnIRxwoZu9EdbK_h--2" value="&lt;font style=&quot;font-size: 18px;&quot;&gt;Researched datasets&lt;/font&gt;&lt;div&gt;&lt;font size=&quot;3&quot;&gt;and articles&lt;/font&gt;&lt;/div&gt;&lt;div&gt;&lt;font size=&quot;3&quot;&gt;Data Exploration&amp;nbsp;&lt;/font&gt;&lt;/div&gt;" style="rounded=1;whiteSpace=wrap;html=1;align=left;" parent="1" vertex="1">
          <mxGeometry x="70" y="270" width="170" height="110" as="geometry" />
        </mxCell>
        <mxCell id="_mTmnIRxwoZu9EdbK_h--3" value="&lt;font style=&quot;font-size: 18px;&quot;&gt;SecureGPT&lt;/font&gt;&lt;div&gt;&lt;font style=&quot;font-size: 18px;&quot;&gt;Postman&lt;/font&gt;&lt;/div&gt;&lt;div&gt;&lt;font style=&quot;font-size: 18px;&quot;&gt;Prompt engineering&lt;/font&gt;&lt;/div&gt;&lt;div&gt;&lt;font style=&quot;font-size: 18px;&quot;&gt;compilance monitoring&lt;/font&gt;&lt;/div&gt;&lt;div&gt;&lt;font style=&quot;font-size: 18px;&quot;&gt;AWS lambda&lt;/font&gt;&lt;/div&gt;" style="rounded=1;whiteSpace=wrap;html=1;align=left;" parent="1" vertex="1">
          <mxGeometry x="70" y="520" width="170" height="140" as="geometry" />
        </mxCell>
        <mxCell id="_mTmnIRxwoZu9EdbK_h--4" value="&lt;div&gt;&lt;font style=&quot;font-size: 18px;&quot;&gt;Data Visualization&amp;nbsp;&lt;/font&gt;&lt;/div&gt;&lt;div&gt;&lt;font style=&quot;font-size: 18px;&quot;&gt;Dataset Analysis and Evaluation&lt;/font&gt;&lt;/div&gt;&lt;div&gt;&lt;font size=&quot;3&quot;&gt;Data Filtering and Preprocessing&lt;/font&gt;&lt;/div&gt;" style="rounded=1;whiteSpace=wrap;html=1;align=left;" parent="1" vertex="1">
          <mxGeometry x="70" y="385" width="170" height="125" as="geometry" />
        </mxCell>
        <mxCell id="_mTmnIRxwoZu9EdbK_h--9" value="&lt;i&gt;&lt;b&gt;2/17-2/23&lt;/b&gt;&lt;/i&gt;" style="rounded=1;whiteSpace=wrap;html=1;" parent="1" vertex="1">
          <mxGeometry x="180" y="365" width="60" height="20" as="geometry" />
        </mxCell>
        <mxCell id="_mTmnIRxwoZu9EdbK_h--10" value="&lt;i&gt;&lt;b&gt;2/24-3/2&lt;/b&gt;&lt;/i&gt;" style="rounded=1;whiteSpace=wrap;html=1;" parent="1" vertex="1">
          <mxGeometry x="187.5" y="490" width="55" height="20" as="geometry" />
        </mxCell>
        <mxCell id="_mTmnIRxwoZu9EdbK_h--11" value="&lt;i&gt;&lt;b&gt;1/27-2/3&lt;/b&gt;&lt;/i&gt;" style="rounded=1;whiteSpace=wrap;html=1;" parent="1" vertex="1">
          <mxGeometry x="-25" y="370" width="50" height="20" as="geometry" />
        </mxCell>
        <mxCell id="_mTmnIRxwoZu9EdbK_h--12" value="&lt;b&gt;3/3-3/9&lt;/b&gt;" style="rounded=1;whiteSpace=wrap;html=1;" parent="1" vertex="1">
          <mxGeometry x="190" y="640" width="50" height="20" as="geometry" />
        </mxCell>
        <mxCell id="46mlmTka-PqGRkQ-jP3u-2" value="&lt;font style=&quot;font-size: 14px;&quot;&gt;Compliance system with &lt;span style=&quot;&quot; data-end=&quot;45&quot; data-start=&quot;31&quot;&gt;AWS Lambda&lt;/span&gt;.&lt;/font&gt;&lt;div&gt;&lt;font size=&quot;3&quot;&gt;Automated &lt;span style=&quot;&quot; data-end=&quot;109&quot; data-start=&quot;83&quot;&gt;NIST compliance checks&lt;/span&gt; via &lt;span style=&quot;&quot; data-end=&quot;127&quot; data-start=&quot;114&quot;&gt;SecureGPT.&lt;/span&gt;&lt;/font&gt;&lt;/div&gt;&lt;div&gt;&lt;span style=&quot;&quot; data-end=&quot;127&quot; data-start=&quot;114&quot;&gt;&lt;font size=&quot;3&quot;&gt;Validated API with &lt;span style=&quot;&quot; data-end=&quot;163&quot; data-start=&quot;152&quot;&gt;Postman&lt;/span&gt;&lt;/font&gt;&lt;/span&gt;&lt;/div&gt;" style="rounded=1;whiteSpace=wrap;html=1;align=left;" parent="1" vertex="1">
          <mxGeometry x="275" y="270" width="170" height="140" as="geometry" />
        </mxCell>
        <mxCell id="46mlmTka-PqGRkQ-jP3u-3" value="&lt;i&gt;&lt;b&gt;3/10-3/16&lt;/b&gt;&lt;/i&gt;" style="rounded=1;whiteSpace=wrap;html=1;" parent="1" vertex="1">
          <mxGeometry x="385" y="395" width="60" height="20" as="geometry" />
        </mxCell>
        <mxCell id="MzIeCN-aOZ6AmXnH1RBA-1" value="&lt;font style=&quot;font-size: 18px;&quot;&gt;Creating jira tickets for anomaly logs.&lt;/font&gt;&lt;div&gt;&lt;font size=&quot;3&quot;&gt;Lambda integration.&lt;/font&gt;&lt;/div&gt;" style="rounded=1;whiteSpace=wrap;html=1;align=left;" parent="1" vertex="1">
          <mxGeometry x="280" y="415" width="165" height="70" as="geometry" />
        </mxCell>
        <mxCell id="MzIeCN-aOZ6AmXnH1RBA-3" value="&lt;b&gt;3/17-3/23&lt;/b&gt;" style="rounded=1;whiteSpace=wrap;html=1;" parent="1" vertex="1">
          <mxGeometry x="395" y="480" width="60" height="20" as="geometry" />
        </mxCell>
        <mxCell id="6hVlPOOGsjToEyNXX8bQ-1" value="&lt;span style=&quot;font-size: 18px; color: rgba(0, 0, 0, 0);&quot;&gt;Prompt Engineering&lt;/span&gt;&lt;div&gt;&lt;span style=&quot;font-size: 18px;&quot;&gt;Chain of command&lt;/span&gt;&lt;/div&gt;&lt;div&gt;&lt;span style=&quot;font-size: 18px;&quot;&gt;Model enhancement&lt;/span&gt;&lt;/div&gt;&lt;div&gt;&lt;span style=&quot;font-size: 18px;&quot;&gt;Model Development&lt;br&gt;&lt;/span&gt;&lt;div&gt;&lt;span style=&quot;color: rgba(0, 0, 0, 0); font-family: monospace; font-size: 0px; text-wrap-mode: nowrap;&quot;&gt;&lt;br&gt;&lt;/span&gt;&lt;/div&gt;&lt;div&gt;&lt;span style=&quot;color: rgba(0, 0, 0, 0); font-family: monospace; font-size: 0px; text-wrap-mode: nowrap;&quot;&gt;Chain%3CmxGraphModel%3E%3Croot%3E%3CmxCell%20id%3D%220%22%2F%3E%3CmxCell%20id%3D%221%22%20parent%3D%220%22%2F%3E%3CmxCell%20id%3D%222%22%20value%3D%22%26lt%3Bi%26gt%3B%26lt%3Bb%26gt%3B3%2F10-3%2F16%26lt%3B%2Fb%26gt%3B%26lt%3B%2Fi%26gt%3B%22%20style%3D%22rounded%3D1%3BwhiteSpace%3Dwrap%3Bhtml%3D1%3B%22%20vertex%3D%221%22%20parent%3D%221%22%3E%3CmxGeometry%20x%3D%22385%22%20y%3D%22395%22%20width%3D%2260%22%20height%3D%2220%22%20as%3D%22geometry%22%2F%3E%3C%2FmxCell%3E%3C%2Froot%3E%3C%2Fm&lt;/span&gt;&lt;/div&gt;&lt;/div&gt;" style="rounded=1;whiteSpace=wrap;html=1;align=left;strokeColor=#000000;" vertex="1" parent="1">
          <mxGeometry x="275" y="510" width="170" height="105" as="geometry" />
        </mxCell>
        <mxCell id="6hVlPOOGsjToEyNXX8bQ-2" value="&lt;i&gt;&lt;b&gt;3/24-3/30&lt;/b&gt;&lt;/i&gt;" style="rounded=1;whiteSpace=wrap;html=1;" vertex="1" parent="1">
          <mxGeometry x="385" y="600" width="60" height="20" as="geometry" />
        </mxCell>
        <mxCell id="6hVlPOOGsjToEyNXX8bQ-3" value="&lt;font style=&quot;font-size: 18px;&quot;&gt;Reflexion based Promts&lt;/font&gt;&lt;span style=&quot;color: rgba(0, 0, 0, 0); font-family: monospace; font-size: 0px; text-wrap-mode: nowrap;&quot;&gt;%3CmxGraphModel%3E%3Croot%3E%3CmxCell%20id%3D%220%22%2F%3E%3CmxCell%20id%3D%221%22%20parent%3D%220%22%2F%3E%3CmxCell%20id%3D%222%22%20value%3D%22%26lt%3Bi%26gt%3B%26lt%3Bb%26gt%3B3%2F10-3%2F16%26lt%3B%2Fb%26gt%3B%26lt%3B%2Fi%26gt%3B%22%20style%3D%22rounded%3D1%3BwhiteSpace%3Dwrap%3Bhtml%3D1%3B%22%20vertex%3D%221%22%20parent%3D%221%22%3E%3CmxGeometry%20x%3D%22385%22%20y%3D%22395%22%20width%3D%2260%22%20height%3D%2220%22%20as%3D%22geometry%22%2F%3E%3C%2FmxCell%3E%3C%2Froot%3E%3C%2FmxGraphModel%3E&lt;/span&gt;&lt;div&gt;&lt;font style=&quot;font-size: 18px;&quot;&gt;Chain of thought(COT)&lt;/font&gt;&lt;/div&gt;&lt;div&gt;&lt;font size=&quot;3&quot;&gt;Test plan integration&lt;/font&gt;&lt;/div&gt;&lt;div&gt;&lt;font size=&quot;3&quot;&gt;Use cases to test compliance monitoring&amp;nbsp;&lt;/font&gt;&lt;/div&gt;&lt;div&gt;&lt;br&gt;&lt;/div&gt;" style="rounded=1;whiteSpace=wrap;html=1;align=left;strokeColor=#000000;" vertex="1" parent="1">
          <mxGeometry x="480" y="270" width="170" height="165" as="geometry" />
        </mxCell>
        <mxCell id="6hVlPOOGsjToEyNXX8bQ-4" value="&lt;i&gt;&lt;b&gt;3/31-4/6&lt;/b&gt;&lt;/i&gt;" style="rounded=1;whiteSpace=wrap;html=1;" vertex="1" parent="1">
          <mxGeometry x="590" y="425" width="60" height="20" as="geometry" />
        </mxCell>
      </root>
    </mxGraphModel>
  </diagram>
</mxfile>
